<svg width="24" height="28" viewBox="0 0 24 28" fill="none" xmlns="http://www.w3.org/2000/svg">
<g clip-path="url(#clip0_24268_730)">
<path d="M23.6172 2.08318C23.6063 2.06142 23.5809 2.04692 23.5554 2.05417C23.3337 2.14845 23.1119 2.22822 22.8829 2.31162C22.254 2.54368 21.5997 2.69597 20.9454 2.84827C20.1965 3.01506 19.4331 3.13472 18.6879 3.31965C18.0445 3.47556 17.4047 3.66412 16.7867 3.91069C16.3214 4.09199 15.8634 4.28779 15.4344 4.53798C14.9255 4.81719 14.5147 5.23418 14.1149 5.64754C13.7477 6.0319 13.3769 6.41625 13.0534 6.8405C12.8716 7.07981 12.7189 7.34088 12.5735 7.60196C12.8026 6.73897 13.1224 5.86873 13.7077 5.17979C13.7513 5.1254 13.7004 5.06013 13.6386 5.08914C13.4896 5.16166 13.3515 5.25593 13.2097 5.34296C12.1264 6.07541 11.1594 6.98554 10.327 7.98994C9.91985 8.4867 9.52725 8.99434 9.20372 9.54912C8.8293 10.1982 8.54575 10.898 8.34218 11.6196C8.32037 11.1917 8.35672 10.7638 8.41489 10.3396C8.42579 10.2634 8.4367 10.1909 8.44033 10.1148C8.44033 10.064 8.45487 9.99149 8.40398 9.96248C8.36763 9.94435 8.33128 9.96249 8.30583 9.99149C8.27311 10.0241 8.24767 10.0604 8.21859 10.0966C8.16042 10.1728 8.10226 10.2526 8.04773 10.3323C7.86597 10.5898 7.70239 10.8617 7.56062 11.1446C7.21164 11.8589 6.89174 12.5805 6.56821 13.3057C6.24105 14.0309 5.93933 14.7706 5.62306 15.4994C5.32134 16.1883 4.99054 16.8664 4.64884 17.5372C4.46344 17.8962 4.27441 18.2552 4.05266 18.596C3.95815 18.741 3.86 18.8825 3.75821 19.0202C3.77276 18.9912 3.7873 18.9659 3.80184 18.9368C4.09992 18.3531 4.30349 17.7294 4.48889 17.1021C4.64156 16.6996 4.79424 16.2971 4.9651 15.9055C5.16503 15.4595 5.34315 15.0063 5.51401 14.5494C5.85572 13.6864 6.27013 12.8597 6.7427 12.0583C7.04806 11.5398 7.37522 11.0322 7.67331 10.5064C7.95322 10.0132 8.17496 9.4911 8.42943 8.98709C8.61845 8.60999 8.81112 8.23288 8.9747 7.8449C9.02196 7.73612 9.06922 7.62371 9.11284 7.51131C9.13102 7.45692 9.15283 7.3989 9.16373 7.34088C9.16373 7.31913 9.16737 7.29375 9.15283 7.27199C9.12011 7.22123 9.05468 7.23936 9.01469 7.27199C8.89837 7.35901 8.78931 7.44966 8.67662 7.54394C8.3131 7.85215 7.93504 8.14223 7.54608 8.41781C8.37853 7.40978 9.26552 6.37999 9.66539 5.11089C9.69447 5.00211 9.77444 4.73016 9.69447 4.63951C9.63994 4.59237 9.57814 4.65764 9.54543 4.69753C9.20736 5.11814 8.85111 5.52426 8.45487 5.89048C8.60755 5.65117 8.75296 5.4046 8.88382 5.15078C9.10193 4.71566 9.31641 4.27691 9.49453 3.82366C9.70537 3.26888 9.86532 2.6996 10.0325 2.13394C10.2034 1.51752 10.3561 0.89385 10.5415 0.281055C10.5596 0.223039 10.5778 0.165023 10.5887 0.103381C10.5887 0.0852512 10.596 0.0634952 10.5887 0.0453652C10.5778 0.0127311 10.5378 -0.00902488 10.5051 0.00185313C10.476 0.00910514 10.447 0.0272352 10.4215 0.0489912C10.0507 0.397088 9.71992 0.78507 9.36367 1.14404C9.10194 1.41237 8.83657 1.68432 8.58574 1.96352C8.08045 2.53643 7.62969 3.1601 7.27344 3.83454C6.94991 4.44733 6.71362 5.11089 6.56821 5.78895C6.37191 6.6737 6.30648 7.5802 6.18288 8.47582C6.04111 8.08784 5.9575 7.6781 5.93933 7.26111C5.93205 7.12332 5.92478 6.97828 5.91751 6.82962C5.91751 6.76072 5.91751 6.61206 5.81209 6.64469C5.77938 6.66282 5.7612 6.69908 5.74303 6.73534C5.71031 6.80061 5.68123 6.8695 5.65215 6.9384C5.56127 7.14871 5.45948 7.35176 5.36497 7.55844C5.09596 8.13861 4.86331 8.74052 4.74335 9.36782C4.63793 9.88271 4.5834 10.4085 4.5834 10.9306C4.5834 11.6631 4.69609 12.3847 4.69246 13.1207C4.49252 12.798 4.28895 12.4717 4.20534 12.0946C4.16172 11.9169 4.129 11.7392 4.09992 11.5616C4.09265 11.5108 4.08175 11.4564 4.07448 11.4056C4.06721 11.3694 4.06721 11.3222 4.03812 11.2969C3.97269 11.2461 3.92907 11.3331 3.91453 11.3875C3.79093 11.7791 3.72913 12.1925 3.71459 12.6058C3.69642 13.0228 3.7364 13.4398 3.77639 13.8568C3.81274 14.2339 3.85273 14.611 3.87818 14.9918C3.86 15.1295 3.85273 15.2673 3.84182 15.4051C3.7982 16.0832 3.72186 16.7612 3.591 17.4284C3.50375 17.9651 3.39106 18.4945 3.20203 19.0094C3.09298 19.3756 2.9512 19.7309 2.77308 20.0682C2.744 20.1153 2.71855 20.1661 2.69311 20.2132C2.34049 20.8405 2.01696 21.4823 1.66071 22.106C1.44624 22.4722 1.23903 22.8457 1.04637 23.2264C0.904596 23.473 0.77373 23.7232 0.661039 23.9806C0.562889 24.1982 0.468374 24.4194 0.38113 24.6405C0.348413 24.7348 0.253898 24.9234 0.304791 25.0177C0.38113 25.0865 0.442928 24.9959 0.490185 24.898C0.501091 24.8871 0.511996 24.8762 0.519267 24.8654C0.548348 24.8255 0.573794 24.7856 0.595606 24.7421C0.653768 24.6442 0.711931 24.5499 0.766459 24.4556C1.00638 24.0386 1.23903 23.618 1.47532 23.1974C1.82793 22.5447 2.21326 21.9102 2.60223 21.2756C2.66766 21.1705 2.72946 21.0653 2.79489 20.9565C2.87487 20.8405 2.95484 20.7281 3.03845 20.6121C3.18749 20.409 3.34744 20.2132 3.52193 20.0319C3.7364 19.7962 4.00541 19.5678 4.25624 19.3683C4.61975 19.0746 4.94692 18.741 5.26682 18.4038C6.01203 17.5952 6.71362 16.7467 7.44066 15.92C7.92414 15.3398 8.44397 14.7814 9.00015 14.2738C9.41093 13.9293 9.83624 13.5994 10.2688 13.2839C10.9595 12.7908 11.6866 12.352 12.3736 11.8516C13.1842 11.2606 13.9767 10.6442 14.7038 9.95161C14.7256 9.92622 14.751 9.89722 14.7365 9.86096C14.7219 9.81382 14.6638 9.82107 14.6238 9.83195C14.4602 9.87546 14.3039 9.94073 14.1439 9.98061C13.9804 10.0169 13.8131 10.0495 13.6495 10.0785C13.2024 10.1655 12.7444 10.2018 12.29 10.2054C12.5481 10.1075 12.8098 10.0132 13.0716 9.92622C13.7223 9.73042 14.3802 9.56362 15.0164 9.32431C16.1469 8.93633 17.1357 8.24013 18.0409 7.47505C18.2626 7.29012 18.488 7.10519 18.6915 6.89851C18.7279 6.855 18.7824 6.81511 18.7897 6.75347C18.7897 6.68095 18.7025 6.68095 18.6479 6.69546C18.139 6.80424 17.6264 6.90939 17.1102 6.96378C16.7685 6.99641 16.4123 7.0218 16.0706 6.96015C16.4668 6.8405 16.8667 6.73534 17.2738 6.65194C17.6519 6.5758 18.0336 6.50328 18.4007 6.39087C18.9715 6.22408 19.484 5.89774 19.9202 5.49887C20.182 5.24868 20.4255 4.98036 20.6655 4.70841C20.9199 4.41833 21.1489 4.10649 21.4179 3.82729C21.7705 3.45743 22.1559 3.12022 22.5667 2.81926C22.872 2.57994 23.1992 2.37689 23.5372 2.18471C23.5627 2.1702 23.5881 2.16295 23.6136 2.14845C23.6354 2.13394 23.6427 2.10856 23.6318 2.08318H23.6172ZM3.75094 19.3103C3.75094 19.3103 3.75094 19.3103 3.74367 19.3103H3.74731H3.75094ZM4.61975 15.4124C4.89966 14.4986 5.16867 13.5812 5.45948 12.6711C5.73212 11.7392 6.00476 10.8073 6.29194 9.88271C6.61183 8.78766 6.8663 7.67448 7.20437 6.58305C7.44429 5.81434 7.71329 5.05288 8.01502 4.30592C8.28765 3.63148 8.59301 2.96792 9.00742 2.36601C8.66935 3.16735 8.32037 3.96145 8.02592 4.7773C7.74238 5.49162 7.50245 6.22045 7.29525 6.96015C6.78996 8.59548 6.4846 10.2852 5.99749 11.9242C5.79028 12.6494 5.55763 13.3673 5.3068 14.0816C5.12868 14.5929 4.91784 15.1042 4.74335 15.6154C4.35438 16.7504 3.9945 17.8962 3.55101 19.013C3.54374 19.0202 3.53647 19.0275 3.5292 19.0347C3.51466 19.0311 3.50012 19.0347 3.48921 19.0384C3.56555 18.7991 3.63825 18.5561 3.70005 18.3132C3.9945 17.3414 4.31803 16.3805 4.61975 15.4124ZM15.5471 6.49965C15.1254 6.78973 14.7038 7.07981 14.3039 7.39527C13.6386 7.92467 12.9916 8.4722 12.3482 9.02698C11.9737 9.36057 11.6357 9.73405 11.283 10.093C10.9341 10.4556 10.5815 10.811 10.2507 11.1881C9.8108 11.6776 9.36003 12.1598 8.93835 12.6675C8.56756 13.1026 8.22949 13.5667 7.89505 14.0309C7.64786 14.3608 7.39703 14.6908 7.16438 15.0316C6.88811 15.4269 6.60093 15.8112 6.32465 16.2065C6.04838 16.6053 5.77574 17.0042 5.50674 17.4067C5.33588 17.6605 5.16503 17.9179 4.9651 18.1536C4.72881 18.4328 4.48525 18.7265 4.21625 18.984C4.11446 19.0746 4.01631 19.1653 3.91816 19.2596C3.91816 19.2596 3.91816 19.2596 3.91453 19.2596C3.86727 19.2487 3.86727 19.2052 3.87818 19.1689C4.07084 18.955 4.26351 18.7447 4.45254 18.5271C4.68155 18.2624 4.88876 17.9796 5.08142 17.6895C6.10654 16.1956 7.14257 14.7053 8.24403 13.2621C8.65481 12.7291 9.08012 12.2034 9.53816 11.7102C10.327 10.8762 11.1413 10.0713 11.9556 9.25904C13.0061 8.21475 14.1258 7.23573 15.3435 6.39087C16.3141 5.73819 17.3465 5.17979 18.4116 4.69753C17.4156 5.23055 16.485 5.8796 15.5471 6.50328V6.49965Z" fill="#5534DA"/>
<path d="M16.4413 24.8479C16.4122 24.9096 16.3722 24.964 16.3286 25.0147C15.8706 25.4897 15.1944 25.7363 14.5546 25.8632C13.9076 25.9974 13.2423 25.8741 12.6098 25.7327C13.2387 25.2142 13.9439 24.6086 14.0857 23.7638C14.2238 22.7521 13.2678 22.0958 12.3481 22.0523C9.27269 21.9507 6.49541 23.6151 3.88899 25.0546C2.90022 25.5949 1.79876 26.2875 0.624592 26.0155C0.461008 25.9684 0.29379 25.8632 0.242897 25.6892C0.246533 25.642 0.224721 25.5876 0.177464 25.5659C-0.186054 25.4934 0.0720437 26.0046 0.239262 26.0953C1.68243 26.9184 3.68905 25.3918 4.965 24.7319C6.28094 24.0139 7.6405 23.2887 9.07276 22.821C10.2615 22.4693 11.6683 22.0777 12.8933 22.4076C13.5186 22.5889 14.0057 23.2416 13.8058 23.8943C13.5549 24.6485 12.9042 25.1815 12.2972 25.6529C11.3411 25.4245 10.3487 25.1743 9.35994 25.3157C8.81466 25.4136 8.18577 25.6058 7.91314 26.1279C7.48782 26.9836 8.55293 27.1504 9.17091 27.1323C10.3305 27.096 11.4356 26.621 12.3517 25.9212C13.3914 26.1932 14.4201 26.2947 15.4343 25.8668C15.8924 25.6565 16.4122 25.4245 16.6594 24.9567C16.7357 24.8153 16.5103 24.6993 16.4376 24.8407L16.4413 24.8479ZM9.13819 26.8894C8.80376 26.864 8.21486 26.9111 8.07308 26.5376C8.05127 26.0663 8.57474 25.7907 8.96734 25.671C9.97429 25.3664 11.0358 25.6203 12.0318 25.8523C11.1921 26.4651 10.1851 26.8604 9.13819 26.8894Z" fill="#5534DA"/>
</g>
<defs>
<clipPath id="clip0_24268_730">
<rect width="23.6287" height="27.1334" fill="white"/>
</clipPath>
</defs>
</svg>
