<svg width="32" height="32" viewBox="0 0 32 32" fill="none" xmlns="http://www.w3.org/2000/svg">
<g clip-path="url(#clip0_695_11674)">
<path d="M8.5 15H23.5C23.6326 15 23.7598 15.0527 23.8536 15.1464C23.9473 15.2402 24 15.3674 24 15.5C24 15.6326 23.9473 15.7598 23.8536 15.8536C23.7598 15.9473 23.6326 16 23.5 16H8.5C8.36739 16 8.24021 15.9473 8.14645 15.8536C8.05268 15.7598 8 15.6326 8 15.5C8 15.3674 8.05268 15.2402 8.14645 15.1464C8.24021 15.0527 8.36739 15 8.5 15ZM8.5 12H23.5C23.6326 12 23.7598 12.0527 23.8536 12.1464C23.9473 12.2402 24 12.3674 24 12.5C24 12.6326 23.9473 12.7598 23.8536 12.8536C23.7598 12.9473 23.6326 13 23.5 13H8.5C8.36739 13 8.24021 12.9473 8.14645 12.8536C8.05268 12.7598 8 12.6326 8 12.5C8 12.3674 8.05268 12.2402 8.14645 12.1464C8.24021 12.0527 8.36739 12 8.5 12ZM8.5 9H23.5C23.6326 9 23.7598 9.05268 23.8536 9.14645C23.9473 9.24021 24 9.36739 24 9.5C24 9.63261 23.9473 9.75979 23.8536 9.85355C23.7598 9.94732 23.6326 10 23.5 10H8.5C8.36739 10 8.24021 9.94732 8.14645 9.85355C8.05268 9.75979 8 9.63261 8 9.5C8 9.36739 8.05268 9.24021 8.14645 9.14645C8.24021 9.05268 8.36739 9 8.5 9Z" fill="#9FA6B2"/>
<path d="M0 2V23C0 23.5304 0.210714 24.0391 0.585786 24.4142C0.960859 24.7893 1.46957 25 2 25H20L28 32V25H30C30.5304 25 31.0391 24.7893 31.4142 24.4142C31.7893 24.0391 32 23.5304 32 23V2C32 1.46957 31.7893 0.960859 31.4142 0.585786C31.0391 0.210714 30.5304 0 30 0L2 0C1.46957 0 0.960859 0.210714 0.585786 0.585786C0.210714 0.960859 0 1.46957 0 2ZM1 3C1 2.46957 1.21071 1.96086 1.58579 1.58579C1.96086 1.21071 2.46957 1 3 1H29C29.5304 1 30.0391 1.21071 30.4142 1.58579C30.7893 1.96086 31 2.46957 31 3V22C31 22.5304 30.7893 23.0391 30.4142 23.4142C30.0391 23.7893 29.5304 24 29 24H27V30L21.167 25L20 24H3C2.46957 24 1.96086 23.7893 1.58579 23.4142C1.21071 23.0391 1 22.5304 1 22V3Z" fill="#9FA6B2"/>
</g>
<defs>
<clipPath id="clip0_695_11674">
<rect width="32" height="32" fill="white"/>
</clipPath>
</defs>
</svg>
