<svg width="22" height="22" viewBox="0 0 22 22" fill="none" xmlns="http://www.w3.org/2000/svg">
<path d="M18.3457 1.06592H3.46855C2.69562 1.06592 1.95434 1.37296 1.4078 1.91951C0.861246 2.46607 0.554199 3.20734 0.554199 3.98027V18.8574C0.554199 19.6304 0.861246 20.3717 1.4078 20.9182C1.95434 21.4647 2.69562 21.7718 3.46855 21.7718H10.2394V14.2141H7.67961V11.2662H10.2394V9.09463C10.2394 7.86392 10.5797 6.90757 11.2604 6.22816C11.9411 5.54745 12.8638 5.2058 14.0298 5.2058C15.1971 5.2058 15.9529 5.2511 16.2984 5.33651V7.96098H14.7429C14.1812 7.96098 13.7982 8.08004 13.5924 8.31816C13.3879 8.55498 13.2857 8.91216 13.2857 9.3871V11.2662H16.2013L15.8131 14.2141H13.2857V21.7718H18.3457C19.1187 21.7718 19.8599 21.4647 20.4065 20.9182C20.9531 20.3717 21.2601 19.6304 21.2601 18.8574V3.98027C21.2601 3.20734 20.9531 2.46607 20.4065 1.91951C19.8599 1.37296 19.1187 1.06592 18.3457 1.06592Z" fill="white"/>
</svg>
